<?xml version="1.0" encoding="UTF-8"?>
<!DOCTYPE svg PUBLIC "-//W3C//DTD SVG 1.1//EN" "http://www.w3.org/Graphics/SVG/1.1/DTD/svg11.dtd">
<svg xmlns="http://www.w3.org/2000/svg" version="1.1" width="24px" height="24px" style="shape-rendering:geometricPrecision; text-rendering:geometricPrecision; image-rendering:optimizeQuality; fill-rule:evenodd; clip-rule:evenodd" xmlns:xlink="http://www.w3.org/1999/xlink">
<g><path style="opacity:0.464" fill="#fefffe" d="M 2.5,3.5 C 8.53675,3.17075 14.5368,3.50408 20.5,4.5C 17.5,4.83333 14.5,5.16667 11.5,5.5C 8.08657,5.48303 5.08657,4.81637 2.5,3.5 Z"/></g>
<g><path style="opacity:0.464" fill="#fefffe" d="M 2.5,10.5 C 8.53675,10.1707 14.5368,10.5041 20.5,11.5C 17.5,11.8333 14.5,12.1667 11.5,12.5C 8.08657,12.483 5.08657,11.8164 2.5,10.5 Z"/></g>
<g><path style="opacity:0.464" fill="#fefffe" d="M 2.5,17.5 C 8.53675,17.1707 14.5368,17.5041 20.5,18.5C 17.5,18.8333 14.5,19.1667 11.5,19.5C 8.08657,19.483 5.08657,18.8164 2.5,17.5 Z"/></g>
</svg>
