<svg xmlns="http://www.w3.org/2000/svg" width="56.611" height="56.611" viewBox="0 0 56.611 56.611">
  <g id="Group_576" data-name="Group 576" transform="translate(933.321 -5783.731)">
    <path id="Path_1005" data-name="Path 1005" d="M223.985,6506.269h0a27.233,27.233,0,0,1-27.233-27.232h0a27.232,27.232,0,0,1,54.465,0h0A27.232,27.232,0,0,1,223.985,6506.269Z" transform="translate(-1129 -667)" fill="none" stroke="#fff" stroke-width="2.146"/>
    <path id="Path_1006" data-name="Path 1006" d="M219.835,6495.5h6.628v-16.6h4.625l.494-5.558h-5.119v-3.165c0-1.311.264-1.829,1.532-1.829h3.587v-5.769h-4.591c-4.932,0-7.156,2.173-7.156,6.331v4.432h-3.449v5.628h3.449Z" transform="translate(-1129 -667)" fill="#fff"/>
  </g>
</svg>
