<svg xmlns="http://www.w3.org/2000/svg" width="56.612" height="56.611" viewBox="0 0 56.612 56.611">
  <g id="Group_574" data-name="Group 574" transform="translate(-193.953 -6278.886)">
    <path id="Path_29" data-name="Path 29" d="M222.259,6334.424h0a27.233,27.233,0,0,1-27.233-27.232h0a27.233,27.233,0,0,1,54.466,0h0A27.233,27.233,0,0,1,222.259,6334.424Z" fill="none" stroke="#fff" stroke-width="2.146"/>
    <path id="Path_30" data-name="Path 30" d="M222.259,6294.95c3.987,0,4.459.016,6.033.088a8.277,8.277,0,0,1,2.773.513,4.943,4.943,0,0,1,2.834,2.835,8.276,8.276,0,0,1,.515,2.772c.071,1.574.087,2.046.087,6.034s-.016,4.459-.087,6.034A8.268,8.268,0,0,1,233.9,6316a4.937,4.937,0,0,1-2.834,2.835,8.241,8.241,0,0,1-2.773.514c-1.574.072-2.046.087-6.033.087s-4.459-.015-6.033-.087a8.241,8.241,0,0,1-2.773-.514,4.937,4.937,0,0,1-2.834-2.835,8.268,8.268,0,0,1-.515-2.771c-.071-1.575-.086-2.047-.086-6.034s.015-4.46.086-6.034a8.275,8.275,0,0,1,.515-2.772,4.943,4.943,0,0,1,2.834-2.835,8.277,8.277,0,0,1,2.773-.513c1.574-.072,2.046-.088,6.033-.088m0-2.69c-4.055,0-4.563.017-6.156.09a10.941,10.941,0,0,0-3.625.694,7.638,7.638,0,0,0-4.367,4.368,10.96,10.96,0,0,0-.694,3.623c-.072,1.593-.089,2.1-.089,6.157s.017,4.564.089,6.157a10.982,10.982,0,0,0,.694,3.624,7.632,7.632,0,0,0,4.367,4.366,10.9,10.9,0,0,0,3.625.694c1.593.073,2.1.091,6.156.091s4.563-.018,6.156-.091a10.9,10.9,0,0,0,3.625-.694,7.632,7.632,0,0,0,4.367-4.366,10.982,10.982,0,0,0,.694-3.624c.072-1.593.089-2.1.089-6.157s-.017-4.564-.089-6.157a10.959,10.959,0,0,0-.694-3.623,7.638,7.638,0,0,0-4.367-4.368,10.941,10.941,0,0,0-3.625-.694c-1.593-.073-2.1-.09-6.156-.09" fill="#fff"/>
    <path id="Path_31" data-name="Path 31" d="M222.259,6299.525a7.667,7.667,0,1,0,7.667,7.667,7.668,7.668,0,0,0-7.667-7.667m0,12.644a4.977,4.977,0,1,1,4.977-4.977,4.977,4.977,0,0,1-4.977,4.977" fill="#fff"/>
    <path id="Path_32" data-name="Path 32" d="M232.021,6299.221a1.791,1.791,0,1,1-1.792-1.792,1.793,1.793,0,0,1,1.792,1.792" fill="#fff"/>
  </g>
</svg>
