<svg xmlns="http://www.w3.org/2000/svg" xmlns:xlink="http://www.w3.org/1999/xlink" width="396.912" height="58.963" viewBox="0 0 396.912 58.963">
  <defs>
    <clipPath id="clip-path">
      <rect id="Rectangle_157" data-name="Rectangle 157" width="48.99" height="44.792" transform="translate(199.923 90.264)" fill="none"/>
    </clipPath>
    <clipPath id="clip-path-2">
      <path id="Path_221" data-name="Path 221" d="M407.742-43.278a16.209,16.209,0,0,1-16.21,16.21,16.211,16.211,0,0,1-16.21-16.21,16.211,16.211,0,0,1,16.21-16.211,16.21,16.21,0,0,1,16.21,16.211" fill="none"/>
    </clipPath>
    <clipPath id="clip-path-3">
      <path id="Path_226" data-name="Path 226" d="M366.414-9.367A16.211,16.211,0,0,1,350.2,6.843a16.211,16.211,0,0,1-16.21-16.21A16.211,16.211,0,0,1,350.2-25.578,16.211,16.211,0,0,1,366.414-9.367" fill="none"/>
    </clipPath>
  </defs>
  <g id="Group_567" data-name="Group 567" transform="translate(-194 -85.918)">
    <path id="Path_200" data-name="Path 200" d="M222.318,142.229a27.993,27.993,0,1,0-27.994-27.992,27.992,27.992,0,0,0,27.994,27.992" fill="#7d6a5e"/>
    <g id="Group_566" data-name="Group 566">
      <text id="heritage_" data-name="heritage " transform="translate(257.557 130.881)" fill="#fff" font-size="39.268" font-family="Prata-Regular, Prata"><tspan x="0" y="0">herita</tspan><tspan y="0" letter-spacing="-0.009em">g</tspan><tspan y="0">e </tspan></text>
      <text id="ceramics" transform="translate(420.911 130.881)" fill="#fff" font-size="39.268" font-family="Montserrat-Light, Montserrat" font-weight="300"><tspan x="0" y="0" letter-spacing="-0.029em">c</tspan><tspan y="0" letter-spacing="-0.019em">e</tspan><tspan y="0" letter-spacing="-0.028em">r</tspan><tspan y="0" letter-spacing="-0.02em">a</tspan><tspan y="0" letter-spacing="-0.019em">mi</tspan><tspan y="0" letter-spacing="-0.02em">c</tspan><tspan y="0">s</tspan></text>
      <path id="Path_201" data-name="Path 201" d="M222.318,142.229a27.993,27.993,0,1,0-27.994-27.992A27.992,27.992,0,0,0,222.318,142.229Z" fill="none" stroke="#fff" stroke-width="0.649"/>
      <g id="Group_175" data-name="Group 175">
        <g id="Group_174" data-name="Group 174" clip-path="url(#clip-path)">
          <g id="Group_171" data-name="Group 171">
            <g id="Group_170" data-name="Group 170" clip-path="url(#clip-path-2)">
              <path id="Path_218" data-name="Path 218" d="M405.978-39.359a4.681,4.681,0,0,1-.584,4.378,5.53,5.53,0,0,1-4.4,2.414,2.8,2.8,0,0,0,2.043-1.008.585.585,0,0,0,.053-.584,2.026,2.026,0,0,0-1.194-.822c-.079,0-.212-.053-.265-.053a3.62,3.62,0,0,1-1.777-1.778,3.509,3.509,0,0,1,0-2.547,2.884,2.884,0,0,1,.636-.956v-.052a2.1,2.1,0,0,0,.4-.319A3.074,3.074,0,0,1,402.9-41.4a2.884,2.884,0,0,1,1.274.238c.053,0,.053.08.132.08a.2.2,0,0,0,.134.053,3.619,3.619,0,0,1,1.538,1.672" fill="#fff"/>
              <path id="Path_219" data-name="Path 219" d="M399.85-47a3.509,3.509,0,0,1,0-2.547,3.786,3.786,0,0,1,1.777-1.805c.053,0,.186-.053.265-.053a2.211,2.211,0,0,0,1.194-.742.73.73,0,0,0-.053-.664,2.693,2.693,0,0,0-1.956-.981,5.439,5.439,0,0,1,4.317,2.387,4.763,4.763,0,0,1,.584,4.4,3.116,3.116,0,0,1-1.538,1.645.27.27,0,0,1-.133.053c-.08.079-.08.079-.133.079a2.868,2.868,0,0,1-1.274.239,3.2,3.2,0,0,1-2.016-.69,4.073,4.073,0,0,1-.4-.318A3.4,3.4,0,0,1,399.85-47" fill="#fff"/>
              <path id="Path_220" data-name="Path 220" d="M398.656-32.567c-5.431,0-7.627-3.964-7.966-9.121h-5.715v6.494a2.233,2.233,0,0,0,1.916,2.261v.732a7.526,7.526,0,0,1-5.4-2.459,8.292,8.292,0,0,1-2.288-5.6V-51.723a1.9,1.9,0,0,0-1.7-1.7v-.732a7.221,7.221,0,0,1,5.355,2.35,8.092,8.092,0,0,1,2.121,5.525v3.864h5.679q-.012-.377-.012-.76c0-5.864,2.07-10.613,8.014-10.613a1.981,1.981,0,0,0-2.071,1.937v17.3a2.023,2.023,0,0,0,2.071,1.99" fill="#fff"/>
            </g>
          </g>
          <path id="Path_222" data-name="Path 222" d="M366.414-9.367A16.21,16.21,0,0,1,350.2,6.843a16.21,16.21,0,0,1-16.21-16.21,16.21,16.21,0,0,1,16.21-16.21,16.21,16.21,0,0,1,16.211,16.21" fill="#fff"/>
          <g id="Group_173" data-name="Group 173">
            <g id="Group_172" data-name="Group 172" clip-path="url(#clip-path-3)">
              <path id="Path_223" data-name="Path 223" d="M364.649-5.448a4.681,4.681,0,0,1-.584,4.378,5.53,5.53,0,0,1-4.4,2.414A2.8,2.8,0,0,0,361.7.336a.582.582,0,0,0,.052-.584,2.02,2.02,0,0,0-1.193-.822c-.079,0-.212-.053-.265-.053A3.626,3.626,0,0,1,358.52-2.9a3.519,3.519,0,0,1,0-2.547,2.915,2.915,0,0,1,.636-.956v-.052a2.1,2.1,0,0,0,.4-.319,3.074,3.074,0,0,1,2.016-.716,2.886,2.886,0,0,1,1.274.238c.053,0,.053.08.132.08a.2.2,0,0,0,.133.053,3.621,3.621,0,0,1,1.539,1.672" fill="#7d6a5e"/>
              <path id="Path_224" data-name="Path 224" d="M358.52-13.089a3.519,3.519,0,0,1,0-2.547,3.788,3.788,0,0,1,1.778-1.805c.053,0,.186-.053.265-.053a2.2,2.2,0,0,0,1.193-.742.733.733,0,0,0-.052-.664,2.7,2.7,0,0,0-1.956-.981,5.44,5.44,0,0,1,4.317,2.387,4.768,4.768,0,0,1,.584,4.4,3.125,3.125,0,0,1-1.539,1.645.27.27,0,0,1-.133.053c-.079.079-.079.079-.132.079a2.873,2.873,0,0,1-1.274.239,3.2,3.2,0,0,1-2.016-.69,3.964,3.964,0,0,1-.4-.318,3.4,3.4,0,0,1-.636-1.008" fill="#7d6a5e"/>
              <path id="Path_225" data-name="Path 225" d="M357.326,1.343c-5.43,0-7.626-3.964-7.965-9.119h-5.715v6.493A2.234,2.234,0,0,0,345.562.979V1.71a7.525,7.525,0,0,1-5.4-2.46,8.287,8.287,0,0,1-2.289-5.6V-17.812a1.9,1.9,0,0,0-1.7-1.7v-.733a7.222,7.222,0,0,1,5.356,2.351,8.092,8.092,0,0,1,2.121,5.525v3.864h5.679c-.008-.251-.013-.5-.013-.76,0-5.863,2.071-10.613,8.014-10.613a1.98,1.98,0,0,0-2.07,1.937v17.3a2.022,2.022,0,0,0,2.07,1.989" fill="#7d6a5e"/>
            </g>
          </g>
          <path id="Path_227" data-name="Path 227" d="M282.947,130.374h-1.885a5.122,5.122,0,0,1-2.028-.409,5.2,5.2,0,0,1-2.791-2.792,5.113,5.113,0,0,1-.409-2.027V114.655h-9.177v-.6h9.177V103.56a5.114,5.114,0,0,1,.409-2.028,5.191,5.191,0,0,1,2.791-2.792,5.139,5.139,0,0,1,2.028-.409h1.885a1.986,1.986,0,0,0-1.316.889,7.106,7.106,0,0,0-.925,2.1,15.042,15.042,0,0,0-.426,4.09V123.3a15.039,15.039,0,0,0,.426,4.089,7.073,7.073,0,0,0,.925,2.1,1.981,1.981,0,0,0,1.316.89" fill="#7d6a5e"/>
          <path id="Path_228" data-name="Path 228" d="M290.433,98.74a5.3,5.3,0,0,1,1.653,1.12,5.232,5.232,0,0,1,1.12,1.671,5.117,5.117,0,0,1,.41,2.029V109H289.17v-3.592a15.679,15.679,0,0,0-.409-4.09,6.836,6.836,0,0,0-.907-2.1,2.105,2.105,0,0,0-1.351-.889h1.884a5.083,5.083,0,0,1,2.046.409M289.17,119.7h4.446v5.442a5.114,5.114,0,0,1-.41,2.027,5.232,5.232,0,0,1-1.12,1.671,5.288,5.288,0,0,1-1.653,1.12,5.083,5.083,0,0,1-2.046.41H286.5a2.107,2.107,0,0,0,1.351-.89,6.806,6.806,0,0,0,.907-2.116,15.7,15.7,0,0,0,.409-4.071Z" fill="#7d6a5e"/>
          <path id="Path_229" data-name="Path 229" d="M266.657,103.559v21.587a5.113,5.113,0,0,1-.409,2.027,5.191,5.191,0,0,1-2.792,2.791,5.114,5.114,0,0,1-2.027.41h-1.885a1.988,1.988,0,0,0,1.316-.89,7.047,7.047,0,0,0,.925-2.1,15.047,15.047,0,0,0,.426-4.09V105.408a15.047,15.047,0,0,0-.426-4.09,7.072,7.072,0,0,0-.925-2.1,1.986,1.986,0,0,0-1.316-.889h1.885a5.113,5.113,0,0,1,2.027.409,5.191,5.191,0,0,1,2.792,2.791,5.114,5.114,0,0,1,.409,2.028" fill="#7d6a5e"/>
          <path id="Path_230" data-name="Path 230" d="M228.9,130.9h-1.885a5.112,5.112,0,0,1-2.027-.408A5.2,5.2,0,0,1,222.2,127.7a5.113,5.113,0,0,1-.409-2.027V115.185h-9.176v-.6h9.176V104.089a5.11,5.11,0,0,1,.409-2.027,5.188,5.188,0,0,1,2.792-2.792,5.131,5.131,0,0,1,2.027-.409H228.9a1.986,1.986,0,0,0-1.316.889,7.094,7.094,0,0,0-.925,2.1,15.034,15.034,0,0,0-.426,4.089v17.889a15.044,15.044,0,0,0,.426,4.089,7.086,7.086,0,0,0,.925,2.1,1.976,1.976,0,0,0,1.316.889" fill="#fff"/>
          <path id="Path_231" data-name="Path 231" d="M236.387,99.27a5.316,5.316,0,0,1,1.653,1.12,5.255,5.255,0,0,1,1.121,1.672,5.126,5.126,0,0,1,.409,2.026v5.442h-4.446v-3.592a15.66,15.66,0,0,0-.409-4.089,6.833,6.833,0,0,0-.907-2.1,2.105,2.105,0,0,0-1.351-.889h1.885a5.1,5.1,0,0,1,2.045.409m-1.263,20.964h4.446v5.442a5.131,5.131,0,0,1-.409,2.027,5.253,5.253,0,0,1-2.774,2.792,5.1,5.1,0,0,1-2.045.409h-1.885a2.1,2.1,0,0,0,1.351-.89,6.817,6.817,0,0,0,.907-2.116,15.694,15.694,0,0,0,.409-4.071Z" fill="#fff"/>
          <path id="Path_232" data-name="Path 232" d="M212.611,104.089v21.586a5.114,5.114,0,0,1-.409,2.028,5.191,5.191,0,0,1-2.792,2.791,5.11,5.11,0,0,1-2.027.409H205.5a1.983,1.983,0,0,0,1.316-.889,7.074,7.074,0,0,0,.925-2.1,15.042,15.042,0,0,0,.426-4.09V105.938a15.047,15.047,0,0,0-.426-4.09,7.1,7.1,0,0,0-.925-2.1,1.986,1.986,0,0,0-1.316-.889h1.885a5.127,5.127,0,0,1,2.027.409,5.191,5.191,0,0,1,2.792,2.791,5.114,5.114,0,0,1,.409,2.028" fill="#fff"/>
          <path id="Path_233" data-name="Path 233" d="M335.839,130.374h-1.885a5.113,5.113,0,0,1-2.027-.409,5.2,5.2,0,0,1-2.792-2.792,5.113,5.113,0,0,1-.409-2.027V114.655H319.55v-.6h9.176V103.56a5.114,5.114,0,0,1,.409-2.028,5.188,5.188,0,0,1,2.792-2.792,5.131,5.131,0,0,1,2.027-.409h1.885a1.986,1.986,0,0,0-1.316.889,7.106,7.106,0,0,0-.925,2.1,15.042,15.042,0,0,0-.426,4.09V123.3a15.039,15.039,0,0,0,.426,4.089,7.073,7.073,0,0,0,.925,2.1,1.981,1.981,0,0,0,1.316.89" fill="#957e70"/>
          <path id="Path_234" data-name="Path 234" d="M343.325,98.74a5.321,5.321,0,0,1,1.654,1.12,5.232,5.232,0,0,1,1.12,1.671,5.133,5.133,0,0,1,.409,2.029V109h-4.445v-3.592a15.679,15.679,0,0,0-.409-4.09,6.836,6.836,0,0,0-.907-2.1,2.107,2.107,0,0,0-1.352-.889h1.885a5.075,5.075,0,0,1,2.045.409M342.063,119.7h4.445v5.442a5.131,5.131,0,0,1-.409,2.027,5.232,5.232,0,0,1-1.12,1.671,5.3,5.3,0,0,1-1.654,1.12,5.075,5.075,0,0,1-2.045.41h-1.885a2.109,2.109,0,0,0,1.352-.89,6.806,6.806,0,0,0,.907-2.116,15.7,15.7,0,0,0,.409-4.071Z" fill="#957e70"/>
          <path id="Path_235" data-name="Path 235" d="M319.55,103.559v21.587a5.113,5.113,0,0,1-.409,2.027,5.193,5.193,0,0,1-2.791,2.791,5.119,5.119,0,0,1-2.028.41h-1.885a1.988,1.988,0,0,0,1.316-.89,7.047,7.047,0,0,0,.925-2.1,15,15,0,0,0,.427-4.09V105.408a15,15,0,0,0-.427-4.09,7.072,7.072,0,0,0-.925-2.1,1.986,1.986,0,0,0-1.316-.889h1.885a5.118,5.118,0,0,1,2.028.409,5.193,5.193,0,0,1,2.791,2.791,5.114,5.114,0,0,1,.409,2.028" fill="#957e70"/>
          <path id="Path_236" data-name="Path 236" d="M386,130.374h-1.885a5.113,5.113,0,0,1-2.027-.409,5.2,5.2,0,0,1-2.792-2.792,5.114,5.114,0,0,1-.409-2.027V114.655h-9.176v-.6h9.176V103.56a5.115,5.115,0,0,1,.409-2.028,5.188,5.188,0,0,1,2.792-2.792,5.131,5.131,0,0,1,2.027-.409H386a1.986,1.986,0,0,0-1.316.889,7.082,7.082,0,0,0-.924,2.1,15,15,0,0,0-.427,4.09V123.3a14.992,14.992,0,0,0,.427,4.089,7.05,7.05,0,0,0,.924,2.1,1.981,1.981,0,0,0,1.316.89" fill="#cbbba0"/>
          <path id="Path_237" data-name="Path 237" d="M393.482,98.74a5.3,5.3,0,0,1,1.654,1.12,5.232,5.232,0,0,1,1.12,1.671,5.134,5.134,0,0,1,.41,2.029V109H392.22v-3.592a15.679,15.679,0,0,0-.409-4.09,6.837,6.837,0,0,0-.907-2.1,2.108,2.108,0,0,0-1.351-.889h1.884a5.074,5.074,0,0,1,2.045.409M392.22,119.7h4.446v5.442a5.132,5.132,0,0,1-.41,2.027,5.238,5.238,0,0,1-2.774,2.791,5.075,5.075,0,0,1-2.045.41h-1.884a2.109,2.109,0,0,0,1.351-.89,6.806,6.806,0,0,0,.907-2.116,15.7,15.7,0,0,0,.409-4.071Z" fill="#cbbba0"/>
          <path id="Path_238" data-name="Path 238" d="M369.707,103.559v21.587a5.113,5.113,0,0,1-.409,2.027,5.193,5.193,0,0,1-2.791,2.791,5.119,5.119,0,0,1-2.028.41H362.6a1.99,1.99,0,0,0,1.316-.89,7.076,7.076,0,0,0,.924-2.1,15,15,0,0,0,.427-4.09V105.408a15,15,0,0,0-.427-4.09,7.1,7.1,0,0,0-.924-2.1,1.988,1.988,0,0,0-1.316-.889h1.884a5.118,5.118,0,0,1,2.028.409,5.193,5.193,0,0,1,2.791,2.791,5.114,5.114,0,0,1,.409,2.028" fill="#cbbba0"/>
          <path id="Path_239" data-name="Path 239" d="M445.723,90.383h1.843a5.883,5.883,0,0,1,5.864,5.863v4.289l-4.521,1.806V97.172a2.265,2.265,0,1,0-4.529,0v26.77a2.265,2.265,0,0,0,4.529,0v-6.984l4.521-1.806v9.716a5.875,5.875,0,0,1-5.864,5.854h-1.843a5.875,5.875,0,0,1-5.864-5.854v-9.16l-4.52,1.806v13.208h-4.52V90.383h4.52v22.268l4.52-1.816V96.246a5.883,5.883,0,0,1,5.864-5.863m12.227,18.081v22.258h4.52V90.383h-4.52v13.209l-9.041,3.622v4.872Z" fill="#7d6a5e" fill-rule="evenodd"/>
          <path id="Path_240" data-name="Path 240" d="M503.478,90.913h1.843a5.883,5.883,0,0,1,5.864,5.864v4.288l-4.521,1.806V97.7a2.265,2.265,0,1,0-4.529,0v26.771a2.265,2.265,0,0,0,4.529,0v-6.985l4.521-1.806V125.4a5.874,5.874,0,0,1-5.864,5.854h-1.843a5.874,5.874,0,0,1-5.863-5.854v-9.16l-4.521,1.806v13.208h-4.52V90.913h4.52v22.268l4.521-1.816V96.777a5.883,5.883,0,0,1,5.863-5.864m12.227,18.081v22.258h4.52V90.913h-4.52v13.209l-9.041,3.622v4.872Z" fill="#957e70" fill-rule="evenodd"/>
        </g>
      </g>
    </g>
  </g>
</svg>
