<svg xmlns="http://www.w3.org/2000/svg" width="39.562" height="39.561" viewBox="0 0 39.562 39.561">
  <g id="Group_582" data-name="Group 582" transform="translate(-952.09 -6556.62)">
    <path id="Path_65" data-name="Path 65" d="M1075.871,7267.431h0a19.031,19.031,0,0,1-19.031-19.03h0a19.031,19.031,0,0,1,38.062,0h0A19.031,19.031,0,0,1,1075.871,7267.431Z" transform="translate(-104 -672)" fill="none" stroke="#fff" stroke-width="1.5"/>
    <path id="Path_66" data-name="Path 66" d="M1069.781,7250.169a.447.447,0,0,0,.65-.324c.06-.228.2-.8.265-1.043a.629.629,0,0,0-.187-.723,3.741,3.741,0,0,1-.856-2.546,6.149,6.149,0,0,1,6.392-6.218c3.486,0,5.4,2.13,5.4,4.976,0,3.743-1.657,6.9-4.116,6.9a2.009,2.009,0,0,1-2.049-2.5c.391-1.645,1.146-3.42,1.146-4.608a1.738,1.738,0,0,0-1.751-1.949c-1.388,0-2.5,1.437-2.5,3.361a4.982,4.982,0,0,0,.415,2.054l-1.67,7.074a14.538,14.538,0,0,0-.039,4.934.173.173,0,0,0,.308.075,13.859,13.859,0,0,0,2.344-4.249c.159-.578.914-3.568.914-3.568a3.72,3.72,0,0,0,3.17,1.617c4.175,0,7.006-3.8,7.006-8.9,0-3.851-3.262-7.437-8.219-7.437-6.168,0-9.279,4.422-9.279,8.11,0,2.233.846,4.219,2.659,4.959" transform="translate(-104 -672)" fill="#fff"/>
  </g>
</svg>
