<svg xmlns="http://www.w3.org/2000/svg" width="19.989" height="18.536" viewBox="0 0 19.989 18.536">
  <path id="Path_985" data-name="Path 985" d="M946.126,95.407h15.611a.514.514,0,0,1,.507.6l-1.229,7.378a1.546,1.546,0,0,1-1.524,1.291h-10.77a1.546,1.546,0,0,1-1.523-1.291l-1.773-10.636a.515.515,0,0,0-.508-.431h-2.138m8.753,15.961a1.544,1.544,0,1,1-1.545-1.544A1.545,1.545,0,0,1,951.532,108.278Zm8.238,0a1.544,1.544,0,1,1-1.545-1.544A1.545,1.545,0,0,1,959.77,108.278Z" transform="translate(-942.779 -91.802)" fill="none" stroke="#fff" stroke-width="1.03"/>
</svg>
